<?xml version="1.0" standalone="no"?>
<!DOCTYPE svg PUBLIC "-//W3C//DTD SVG 20010904//EN"
 "http://www.w3.org/TR/2001/REC-SVG-20010904/DTD/svg10.dtd">
<svg version="1.0" xmlns="http://www.w3.org/2000/svg"
 width="1280.000000pt" height="640.000000pt" viewBox="0 0 1280.000000 640.000000"
 preserveAspectRatio="xMidYMid meet">
<g transform="translate(0.000000,640.000000) scale(0.100000,-0.100000)"
fill="#000000" stroke="none">
<path d="M3920 4590 c-43 -43 -44 -56 -45 -525 l0 -449 -101 -3 -101 -3 -27
50 c-27 49 -53 66 -92 58 -10 -1 -42 -32 -71 -68 -101 -123 -136 -154 -246
-212 l-106 -58 -931 3 -931 3 -52 52 c-70 69 -88 68 -124 -5 -49 -101 -115
-97 -174 10 -28 50 -40 63 -64 68 -42 8 -53 2 -76 -42 -13 -26 -28 -41 -47
-46 -32 -8 -213 36 -279 68 -33 16 -47 19 -56 10 -31 -31 -94 4 -127 70 -20
38 -26 79 -13 79 4 0 17 -10 31 -22 23 -22 23 -21 -5 37 -48 99 -60 119 -91
148 -31 30 -94 50 -124 41 -44 -13 -59 -178 -63 -679 -3 -431 2 -515 36 -647
11 -44 27 -48 91 -19 24 11 50 22 59 25 9 2 19 19 23 38 10 53 61 152 101 197
66 73 200 145 366 196 31 10 64 15 73 12 9 -4 26 -28 39 -54 23 -50 44 -61 93
-49 18 5 31 22 49 61 22 51 26 55 59 55 55 0 84 -16 106 -60 25 -49 61 -70 86
-49 9 7 25 32 34 54 9 22 24 46 32 53 12 9 221 12 968 10 l954 -3 7 -29 c13
-47 47 -74 133 -102 85 -29 136 -67 136 -103 0 -48 24 -126 46 -148 34 -34 64
-29 146 27 79 54 152 76 203 62 26 -7 31 -14 38 -58 4 -27 9 -217 10 -421 2
-364 3 -373 23 -394 12 -11 39 -23 62 -26 35 -5 42 -2 56 20 9 13 24 60 33
103 14 70 15 104 5 294 -7 118 -12 251 -12 294 0 95 17 201 35 216 8 7 111 7
336 0 178 -5 1125 -10 2104 -10 1654 0 2401 -8 2835 -29 110 -6 179 -6 185 0
6 6 12 56 15 112 l5 102 70 8 c39 4 144 9 235 10 129 1 174 -2 205 -14 40 -16
41 -16 85 14 25 17 71 50 102 74 52 40 65 45 170 62 362 62 720 79 1323 62
242 -7 574 -15 738 -18 295 -6 297 -6 297 15 0 35 -69 59 -195 66 -151 9 -606
32 -985 51 -488 24 -801 50 -1070 86 -139 19 -161 25 -210 55 -30 18 -98 52
-150 74 l-94 41 -43 -21 c-68 -34 -158 -42 -328 -29 -82 6 -154 15 -160 20 -5
5 -8 44 -6 86 l3 76 -69 -6 c-37 -3 -147 -14 -243 -23 -214 -22 -530 -23
-3255 -10 -1392 6 -1922 12 -1927 20 -4 6 -8 24 -8 40 0 24 -3 28 -22 22 -13
-3 -26 -6 -30 -6 -19 0 -6 -19 14 -22 23 -3 37 -34 21 -48 -4 -5 -33 -6 -63
-2 -42 5 -56 11 -58 26 -2 10 2 22 9 27 11 6 11 11 1 21 -20 20 -15 69 8 75
l21 6 -21 14 c-29 20 -25 42 10 54 38 14 38 24 -1 38 -44 15 -31 35 25 39 57
4 75 -8 68 -45 -3 -15 -1 -24 5 -20 14 9 37 431 31 568 -6 123 -21 176 -59
203 -32 22 -75 20 -99 -4z m105 -220 c4 -6 11 -53 17 -105 14 -116 3 -167 -43
-190 -37 -20 -57 -10 -33 16 22 24 11 49 -21 49 l-25 0 0 113 c0 63 3 117 7
120 10 11 91 8 98 -3z m-5 -350 c0 -34 -85 -56 -96 -25 -12 31 4 45 51 45 39
0 45 -3 45 -20z m-32 -56 c44 -12 20 -44 -33 -44 -29 0 -41 16 -25 35 14 16
24 18 58 9z m-3813 -235 c17 -16 -11 -31 -44 -24 -33 7 -46 19 -36 35 6 10 65
2 80 -11z m13 -81 c13 -13 16 -44 5 -51 -6 -4 -61 6 -133 22 -3 1 6 11 19 21
26 22 90 27 109 8z m3702 -77 c0 -6 -10 -17 -22 -25 -31 -22 -218 -23 -218 -1
0 7 8 19 18 24 22 13 222 14 222 2z m-3731 -10 c19 -12 6 -41 -17 -41 -11 0
-25 6 -31 14 -10 11 -8 17 6 25 22 13 25 13 42 2z m3438 -8 c5 -13 -43 -30
-54 -20 -3 4 -3 13 1 22 7 19 47 17 53 -2z m443 -28 c16 -20 9 -698 -8 -737
-23 -54 -91 -24 -111 48 -6 22 -8 160 -4 368 l6 332 53 1 c34 1 57 -3 64 -12z
m3838 -45 c21 0 60 6 86 14 41 13 48 13 53 0 3 -8 0 -21 -7 -29 -22 -27 -72
-35 -180 -27 -87 6 -105 10 -108 24 -2 9 6 26 18 38 l20 20 40 -20 c21 -11 57
-20 78 -20z m-3125 24 c11 -11 -12 -43 -43 -59 -20 -11 -61 -15 -137 -15 -125
0 -174 -17 -216 -71 -94 -124 -37 -369 101 -435 35 -16 110 -18 1207 -23 644
-3 1656 -6 2251 -6 l1080 0 42 27 c133 88 147 342 25 464 -18 19 -48 37 -65
42 -28 7 -32 13 -34 45 l-3 37 49 0 c33 0 52 -5 57 -15 6 -9 31 -17 69 -21 56
-6 61 -5 67 15 7 30 41 27 67 -6 22 -28 22 -30 15 -343 -5 -214 -11 -317 -19
-322 -6 -4 -32 -8 -57 -8 -25 0 -80 -3 -122 -6 -62 -6 -76 -10 -80 -25 -5 -18
-18 -19 -174 -19 -93 0 -173 4 -178 9 -8 7 -223 22 -320 22 -41 0 -152 -19
-212 -36 -72 -20 -93 -16 -93 20 l0 25 -197 -2 c-183 -3 -198 -4 -195 -21 5
-29 -27 -32 -61 -6 l-32 24 -975 -3 c-962 -2 -2452 12 -2484 24 -14 5 -16 41
-16 330 l0 324 23 4 c12 3 123 8 247 11 124 4 252 10 285 14 81 11 120 12 128
5z m-4578 -16 c28 -12 33 -39 10 -58 -12 -10 -12 -15 6 -39 35 -48 8 -72 -61
-52 -14 4 -36 4 -49 -1 -17 -6 -27 -5 -32 4 -13 21 9 46 57 64 38 14 43 19 28
25 -11 4 -34 8 -52 8 -45 1 -40 32 8 48 45 15 54 15 85 1z m3423 -2 c11 -12
-13 -26 -43 -26 -37 0 -55 17 -34 31 13 9 67 5 77 -5z m112 -11 c0 -10 -10
-15 -30 -15 -29 0 -38 9 -23 23 13 13 53 7 53 -8z m-3395 -49 c64 -65 170
-120 270 -141 98 -21 103 -20 97 11 -4 24 -3 25 38 22 l43 -3 1 -138 c1 -86
-3 -142 -9 -147 -6 -5 -34 -8 -63 -6 -38 1 -58 8 -76 25 -30 28 -45 26 -154
-27 -58 -28 -71 -38 -54 -40 37 -6 25 -25 -48 -80 -38 -29 -70 -57 -70 -62 0
-6 -7 -10 -15 -10 -22 0 -18 33 10 74 23 33 23 36 4 26 -42 -23 -43 -17 -44
266 -1 255 0 284 11 284 2 0 29 -24 59 -54z m5165 37 c17 -16 -56 -23 -268
-23 -191 0 -243 3 -240 13 3 6 22 15 44 19 41 7 456 -1 464 -9z m-1614 -40 c3
-10 11 -28 17 -40 8 -18 7 -27 -7 -42 -16 -17 -16 -19 4 -24 19 -5 20 -12 20
-224 0 -157 -3 -222 -12 -231 -7 -7 -36 -12 -65 -12 -29 0 -53 -4 -53 -10 0
-5 23 -10 50 -10 39 0 50 -4 50 -16 0 -21 -60 -44 -118 -44 -112 0 -145 26
-74 58 l37 16 -30 4 c-16 2 -34 7 -38 11 -13 13 -19 551 -6 567 8 10 40 14
116 14 90 0 104 -2 109 -17z m-406 -3 c0 -6 -16 -20 -35 -32 -44 -25 -40 -31
14 -19 22 5 43 6 45 2 3 -4 1 -43 -3 -87 -10 -95 -6 -109 20 -90 30 20 111 0
107 -27 -5 -34 -30 -42 -82 -25 l-46 15 0 -69 c0 -44 4 -67 10 -63 6 4 35 3
64 0 55 -7 67 -18 58 -57 -3 -14 -14 -18 -52 -18 -27 0 -52 5 -55 10 -13 20
-24 9 -27 -27 -3 -36 -5 -38 -33 -35 l-30 3 25 -17 c43 -31 52 -54 21 -54 -11
0 -32 11 -48 24 -23 20 -25 26 -15 39 11 12 3 19 -53 41 -36 14 -74 26 -85 26
-30 0 -36 21 -10 42 l22 18 -25 0 c-14 0 -29 4 -32 10 -3 5 -8 68 -11 140 -6
144 -2 160 46 160 41 0 60 10 60 31 0 11 13 25 32 35 60 31 118 43 118 24z
m137 -6 c7 -18 -12 -34 -40 -34 -23 0 -34 29 -16 41 22 14 49 10 56 -7z m1698
-3 c36 -8 39 -33 5 -41 -29 -7 -43 -60 -16 -60 10 0 15 8 13 23 -2 20 3 22 47
25 29 2 52 -1 56 -8 5 -8 14 -8 33 1 25 11 26 14 11 30 -14 16 -14 18 5 28 29
16 156 14 170 -2 8 -10 7 -17 -1 -25 -18 -18 2 -31 40 -25 32 5 32 6 16 24
-12 13 -14 23 -8 29 16 16 716 8 721 -7 3 -7 -8 -18 -24 -25 l-28 -11 30 -6
c35 -7 45 -36 19 -55 -16 -12 -16 -13 0 -19 15 -6 17 -22 15 -127 -2 -107 -4
-122 -21 -131 -25 -14 -41 -2 -34 27 5 17 2 24 -8 24 -9 0 -16 -12 -18 -27 -3
-24 -9 -29 -47 -35 -53 -9 -73 3 -66 41 5 22 4 23 -4 6 -5 -11 -12 -28 -15
-37 -7 -22 -41 -23 -80 -3 -36 19 -36 19 -36 -5 0 -17 -5 -19 -24 -14 -16 4
-34 0 -48 -10 -45 -32 -80 -18 -94 38 l-7 29 -11 -34 c-19 -58 -75 -47 -77 15
-1 21 -3 25 -6 11 -3 -11 -10 -23 -17 -27 -18 -12 -84 -9 -92 4 -5 8 -11 5
-20 -7 -12 -16 -20 -17 -51 -9 -33 8 -38 13 -36 37 2 23 -2 27 -25 27 -25 -1
-25 -2 -9 -14 24 -19 21 -35 -10 -42 -33 -9 -58 7 -57 35 0 13 -6 21 -16 21
-9 0 -17 -8 -17 -17 1 -77 -18 -98 -54 -62 -16 16 -20 29 -15 50 4 22 2 29
-10 29 -11 0 -13 -6 -9 -20 5 -14 -3 -25 -32 -44 l-38 -25 -21 23 c-20 22 -21
23 -43 5 -31 -25 -51 -14 -51 27 0 43 -13 44 -25 2 -7 -22 -19 -35 -38 -41
-34 -11 -47 -1 -50 39 -2 18 -9 30 -19 32 -13 2 -16 -3 -15 -24 1 -20 -3 -29
-16 -32 -23 -5 -47 15 -47 39 0 30 -18 22 -22 -8 -3 -26 -7 -28 -55 -31 -34
-2 -56 2 -64 11 -12 12 -17 11 -41 -6 -19 -14 -34 -18 -55 -12 -68 17 -72 52
-5 58 42 3 41 4 -15 5 -61 2 -63 1 -63 -23 0 -18 -7 -26 -27 -31 -30 -8 -56
17 -46 43 4 10 2 14 -7 11 -8 -2 -18 -22 -25 -44 -9 -32 -16 -40 -38 -42 -20
-3 -35 5 -57 30 -16 18 -41 45 -55 59 -21 22 -25 36 -25 85 0 79 24 128 65
132 57 5 72 12 83 37 10 22 18 26 50 23 34 -3 37 -6 35 -30 -1 -24 2 -28 23
-28 21 0 23 2 12 19 -9 15 -9 23 0 34 10 12 7 15 -19 21 -70 14 -7 24 199 30
224 8 316 3 309 -18 -2 -6 -18 -12 -36 -14 -27 -3 -32 -7 -28 -23 7 -24 -17
-49 -47 -49 -28 0 -50 24 -42 45 4 11 -2 15 -26 15 -25 0 -29 -3 -20 -12 7 -7
12 -20 12 -29 0 -19 37 -29 105 -29 47 0 60 7 45 25 -6 7 -7 20 -4 30 6 14 16
16 56 13 48 -5 73 4 43 16 -18 7 -20 32 -2 39 16 7 75 6 112 -2z m4093 -8 c-3
-16 8 -19 77 -23 l80 -5 -2 -139 c-2 -116 -5 -140 -19 -151 -15 -11 -15 -12
-1 -18 12 -4 16 -17 15 -44 -2 -21 1 -48 5 -59 5 -15 3 -27 -7 -37 -9 -9 -12
-23 -9 -37 4 -17 0 -28 -18 -41 -21 -16 -22 -18 -6 -24 9 -4 17 -15 17 -25 0
-14 -12 -18 -61 -23 -34 -3 -73 -1 -85 4 -25 9 -33 42 -13 55 7 4 2 11 -13 18
-19 9 -24 21 -26 64 -3 51 -2 53 27 63 35 12 41 29 11 29 -28 0 -36 27 -15 50
16 17 17 25 7 59 -24 77 -12 131 29 131 12 0 5 11 -22 39 -44 44 -50 76 -19
109 25 27 52 29 48 5z m-8477 -86 c17 -77 18 -279 1 -328 -15 -44 -48 -77 -62
-63 -20 20 -30 164 -20 258 11 95 29 195 37 209 11 18 31 -17 44 -76z m6134
63 c0 -11 -13 -16 -44 -18 -45 -3 -68 8 -56 28 11 17 100 9 100 -10z m715 6
c0 -26 -59 -36 -79 -13 -15 19 -4 27 41 27 26 0 38 -4 38 -14z m345 -6 c0 -11
-14 -16 -54 -18 -55 -3 -79 7 -66 28 11 18 120 9 120 -10z m88 13 c10 -10 -13
-33 -34 -33 -24 0 -35 20 -18 31 17 10 43 12 52 2z m330 0 c4 -3 2 -12 -4 -20
-8 -9 -42 -13 -124 -13 -61 0 -115 3 -118 7 -4 3 -2 12 4 20 8 9 42 13 124 13
61 0 115 -3 118 -7z m282 -13 c0 -12 -18 -16 -89 -18 -87 -3 -115 5 -101 27 4
8 38 11 98 9 74 -2 92 -6 92 -18z m1321 -15 c4 -8 1 -22 -6 -30 -9 -10 -9 -15
-1 -15 14 0 15 -57 1 -65 -17 -11 9 -35 38 -35 24 0 24 1 9 18 -19 20 -22 48
-8 56 5 3 7 14 4 24 -5 22 19 45 44 40 25 -5 22 -31 -4 -43 -29 -12 -29 -21
-2 -28 11 -3 23 -15 26 -27 8 -30 29 -19 25 14 -3 25 -1 26 25 21 48 -11 53
-14 53 -30 0 -8 -6 -15 -12 -15 -9 0 -9 -3 1 -9 8 -5 66 -12 130 -16 218 -12
406 -26 424 -31 9 -3 17 -11 17 -19 0 -23 -77 -45 -183 -51 -56 -3 -149 -12
-207 -20 -102 -15 -152 -13 -217 7 -26 9 -33 16 -33 37 0 15 -5 34 -10 42 -7
10 -10 -6 -10 -56 0 -76 -14 -108 -46 -102 -10 2 -26 19 -35 37 -11 23 -18 30
-24 22 -4 -8 -20 -11 -36 -9 -17 3 -30 -1 -33 -8 -3 -7 -22 -22 -43 -33 -21
-11 -32 -20 -25 -21 17 0 15 -27 -3 -34 -22 -8 -47 4 -41 20 4 11 -11 14 -78
14 -97 0 -187 15 -198 33 -4 6 -8 43 -8 80 0 66 1 68 31 81 l30 13 -25 17
c-14 9 -26 20 -26 25 0 13 340 23 356 10 8 -6 14 -28 14 -48 0 -20 3 -53 6
-74 6 -36 8 -37 25 -21 11 10 28 15 44 12 35 -7 31 9 -4 17 -41 9 -58 31 -43
56 9 15 9 23 0 38 -9 15 -8 24 5 44 11 17 13 27 5 35 -16 16 -2 42 22 42 11 0
23 -7 26 -15z m-6535 -15 c18 -10 26 -40 14 -52 -9 -9 -95 15 -95 27 0 31 44
44 81 25z m3370 0 c23 -13 25 -33 4 -50 -13 -11 -13 -15 0 -33 29 -42 12 -261
-22 -289 -12 -10 -18 -9 -29 7 -8 10 -14 25 -14 32 0 7 -4 13 -10 13 -5 0 -10
-5 -10 -11 0 -13 -68 -42 -80 -34 -6 4 -10 13 -10 21 0 11 -22 14 -121 14
-108 0 -123 -2 -137 -20 -12 -13 -32 -21 -62 -22 l-45 -3 0 150 0 150 122 -4
c113 -3 121 -2 120 15 -2 23 70 44 160 47 39 1 64 7 67 15 6 15 40 16 67 2z
m97 -36 c3 -23 -21 -49 -38 -39 -5 3 -10 20 -10 36 0 26 3 30 23 27 13 -2 23
-11 25 -24z m508 14 c190 2 337 -1 379 -8 57 -9 70 -8 84 4 25 23 361 7 410
-18 30 -16 36 -17 45 -3 7 8 37 17 71 21 72 9 475 -11 490 -24 6 -5 17 -44 24
-86 12 -67 12 -82 -1 -118 l-15 -41 -56 3 c-31 2 -58 -2 -62 -8 -4 -6 6 -10
24 -10 17 0 31 -4 31 -9 0 -40 -560 -45 -1015 -10 -185 15 -202 15 -344 -4
-72 -10 -120 -22 -131 -32 -16 -15 -19 -15 -35 2 -15 15 -33 17 -111 15 -83
-3 -94 -1 -105 16 -10 16 -16 18 -31 9 -24 -16 -36 -2 -52 59 l-13 49 -7 -57
c-4 -32 -12 -61 -18 -64 -5 -4 -23 3 -39 15 -28 21 -28 21 -39 1 -6 -11 -17
-17 -24 -14 -37 14 -48 144 -18 204 15 31 23 36 69 44 54 9 83 -1 83 -28 0 -8
11 -11 31 -8 30 4 30 5 7 16 -31 16 -50 54 -37 79 9 16 17 17 52 10 23 -4 182
-7 353 -5z m-6587 -20 c6 -18 9 -19 14 -5 9 24 23 21 32 -5 6 -20 8 -20 12 -5
2 9 13 17 23 17 21 0 32 -47 33 -140 1 -54 -7 -70 -26 -51 -9 9 -14 2 -22 -36
-6 -26 -15 -48 -20 -48 -17 0 -37 57 -43 121 -4 50 -8 63 -23 67 -15 4 -19 15
-19 56 0 39 4 51 15 51 9 0 19 -10 24 -22z m8658 6 c7 -18 -12 -64 -26 -64
-22 0 -31 36 -15 58 18 26 32 28 41 6z m-9454 -7 c15 -10 17 -27 15 -117 l-3
-105 -76 -3 c-61 -2 -78 0 -82 12 -11 28 22 48 67 42 23 -3 48 -2 56 4 11 7 5
10 -25 10 -56 0 -90 20 -90 50 0 23 4 25 58 28 74 4 74 20 0 24 -67 4 -78 19
-31 48 38 23 86 26 111 7z m2695 -87 c4 -109 22 -114 22 -7 l0 88 138 -3 137
-3 0 -105 0 -105 -570 0 -570 0 0 50 c0 42 3 50 18 47 19 -3 23 19 7 49 -27
50 -56 3 -47 -76 8 -79 28 -76 -383 -73 l-365 3 -3 94 c-1 52 0 100 2 108 5
11 147 13 808 11 l803 -3 3 -75z m722 44 c13 -13 13 -16 0 -24 -44 -28 -117 2
-89 36 15 19 65 12 89 -12z m-2420 -43 c0 -10 7 -24 15 -31 10 -8 13 -20 9
-29 -4 -9 -10 -36 -13 -60 -7 -52 -27 -64 -41 -26 -14 37 -1 165 16 165 8 0
14 -8 14 -19z m8456 -7 c4 -17 1 -31 -9 -41 -21 -22 -37 -8 -37 33 0 27 4 34
20 34 13 0 22 -9 26 -26z m1534 -19 c13 -16 1 -21 -82 -28 -55 -5 -95 15 -68
33 24 16 135 12 150 -5z m-1532 -88 c-2 -12 -9 -22 -17 -22 -19 0 -36 29 -28
49 10 26 49 2 45 -27z m-6029 -1 c24 -29 -12 -66 -65 -66 -31 0 -53 42 -34 65
16 19 84 20 99 1z m6511 -61 c18 -22 3 -57 -23 -53 -22 3 -33 28 -23 54 7 18
30 18 46 -1z m-9923 -21 c11 -29 -26 -46 -81 -40 -103 11 -95 56 11 56 50 0
65 -4 70 -16z m3 -104 l0 -40 -63 0 c-79 0 -104 17 -98 66 1 7 31 12 81 12
l80 2 0 -40z m3408 -7 c16 -31 -3 -63 -37 -63 -47 0 -81 17 -81 40 0 38 101
57 118 23z m-3408 -83 l0 -30 -81 0 c-71 0 -80 2 -77 17 5 26 46 43 106 43 51
0 52 0 52 -30z m3410 -25 c0 -43 -63 -61 -95 -25 -29 32 -13 50 45 50 46 0 50
-2 50 -25z m-3426 -51 c38 -15 -1 -64 -51 -64 -34 0 -93 24 -93 38 0 28 95 45
144 26z m3695 -3 c24 -15 1 -31 -44 -31 -44 0 -62 11 -50 30 8 12 75 13 94 1z
m5616 -11 c0 -11 -15 -16 -59 -18 -59 -3 -84 7 -71 28 11 18 130 9 130 -10z
m-5899 -11 c9 -15 -14 -29 -48 -29 -28 0 -43 13 -33 30 8 14 72 13 81 -1z
m452 -98 c2 -24 -1 -48 -7 -54 -7 -7 -7 -14 0 -23 27 -33 -63 -60 -95 -29 -27
28 -8 48 38 41 38 -6 40 -5 22 9 -11 8 -28 15 -38 15 -10 0 -18 7 -18 15 0 8
7 15 15 15 10 0 15 10 15 31 0 28 2 30 33 27 30 -3 32 -5 35 -47z m-3874 18
c10 -9 -33 -29 -62 -29 -24 0 -64 29 -56 41 7 12 104 2 118 -12z m-39 -84 c0
-15 -8 -21 -29 -23 -39 -5 -57 15 -31 34 27 20 60 14 60 -11z m3911 -277 c12
-19 -36 -50 -65 -43 -28 7 -53 33 -45 46 8 13 102 11 110 -3z m-41 -64 c59
-23 67 -237 10 -284 -21 -17 -63 12 -81 55 -29 71 -6 210 38 228 7 3 14 6 15
6 1 1 9 -2 18 -5z"/>
<path d="M330 3306 c0 -10 75 -44 115 -51 55 -10 34 8 -35 30 -30 10 -61 20
-67 23 -7 2 -13 1 -13 -2z"/>
<path d="M3705 3390 c-7 -12 2 -12 30 0 19 8 19 9 -2 9 -12 1 -25 -3 -28 -9z"/>
<path d="M3743 3313 c9 -2 25 -2 35 0 9 3 1 5 -18 5 -19 0 -27 -2 -17 -5z"/>
<path d="M5878 3373 c-64 -10 -20 -18 90 -16 151 2 165 4 117 14 -41 8 -158 9
-207 2z"/>
<path d="M4725 3350 c3 -5 10 -10 16 -10 5 0 9 5 9 10 0 6 -7 10 -16 10 -8 0
-12 -4 -9 -10z"/>
<path d="M4839 3340 c-1 -11 -2 -25 -3 -32 -1 -6 5 -13 12 -15 8 -3 12 7 12
31 0 37 -19 51 -21 16z"/>
<path d="M5733 3325 c-10 -23 -9 -25 14 -25 19 0 24 4 19 16 -3 9 -6 20 -6 25
0 18 -15 9 -27 -16z"/>
<path d="M5502 3312 c-20 -13 -31 -14 -65 -5 -42 11 -71 8 -61 -8 7 -11 304
-12 304 -1 0 5 -10 13 -23 19 -17 8 -28 7 -42 -3 -18 -13 -58 -10 -80 6 -5 4
-21 1 -33 -8z"/>
<path d="M5947 3315 c-13 -12 -15 -21 -8 -28 15 -15 34 5 29 29 -3 17 -4 17
-21 -1z"/>
<path d="M6186 3314 c-9 -23 -3 -26 28 -18 25 6 25 7 9 20 -24 18 -30 17 -37
-2z"/>
<path d="M6060 3303 c-14 -7 -18 -13 -10 -13 17 0 47 17 40 23 -3 2 -16 -2
-30 -10z"/>
<path d="M5085 3218 c-4 -10 -4 -26 0 -35 8 -17 8 -17 12 0 3 9 3 25 0 35 -4
16 -4 16 -12 0z"/>
<path d="M4774 3205 c-8 -19 2 -45 16 -45 5 0 10 14 10 30 0 31 -16 41 -26 15z"/>
<path d="M4915 3210 c-3 -5 -1 -18 4 -27 9 -16 10 -14 11 10 0 28 -5 34 -15
17z"/>
<path d="M5220 3189 c0 -38 24 -35 28 4 2 19 -1 27 -12 27 -11 0 -16 -10 -16
-31z"/>
<path d="M5870 3203 c0 -13 5 -23 10 -23 13 0 13 11 0 30 -8 12 -10 11 -10 -7z"/>
<path d="M6032 3193 c4 -39 28 -42 28 -4 0 21 -5 31 -16 31 -11 0 -14 -8 -12
-27z"/>
<path d="M4622 3188 c5 -32 28 -35 28 -4 0 17 -5 26 -16 26 -10 0 -14 -7 -12
-22z"/>
<path d="M6160 3195 c0 -9 5 -15 11 -13 6 2 11 8 11 13 0 5 -5 11 -11 13 -6 2
-11 -4 -11 -13z"/>
<path d="M5371 3184 c0 -11 3 -14 6 -6 3 7 2 16 -1 19 -3 4 -6 -2 -5 -13z"/>
<path d="M5250 3064 c0 -14 3 -14 15 -4 8 7 15 14 15 16 0 2 -7 4 -15 4 -8 0
-15 -7 -15 -16z"/>
<path d="M5970 3061 c0 -11 5 -23 10 -26 6 -4 10 5 10 19 0 14 -4 26 -10 26
-5 0 -10 -9 -10 -19z"/>
<path d="M9870 3220 c38 -12 119 -12 100 0 -8 5 -40 9 -70 9 -42 -1 -49 -3
-30 -9z"/>
<path d="M6876 3305 c-9 -23 -6 -96 4 -120 9 -20 9 -20 9 0 1 12 10 38 21 60
24 47 24 45 5 45 -7 0 -18 7 -23 16 -8 15 -10 15 -16 -1z"/>
<path d="M6668 3073 c17 -2 47 -2 65 0 17 2 3 4 -33 4 -36 0 -50 -2 -32 -4z"/>
<path d="M7250 3220 c37 -12 112 -12 105 0 -3 6 -34 10 -68 9 -46 -1 -56 -3
-37 -9z"/>
<path d="M1914 3236 c-4 -18 -2 -36 5 -48 6 -10 9 -24 5 -30 -5 -8 -1 -9 10
-5 10 4 20 7 22 7 12 0 1 61 -15 81 l-19 24 -8 -29z"/>
<path d="M2540 3215 c0 -8 5 -15 10 -15 6 0 10 7 10 15 0 8 -4 15 -10 15 -5 0
-10 -7 -10 -15z"/>
<path d="M2681 3214 c0 -11 3 -14 6 -6 3 7 2 16 -1 19 -3 4 -6 -2 -5 -13z"/>
<path d="M2777 3223 c-4 -3 -7 -19 -7 -35 0 -25 4 -29 23 -26 17 2 23 11 25
36 3 26 0 32 -16 32 -10 0 -22 -3 -25 -7z"/>
<path d="M2940 3194 c0 -14 4 -23 9 -20 5 3 7 15 4 26 -7 28 -13 25 -13 -6z"/>
<path d="M2185 3200 c3 -5 8 -10 11 -10 2 0 4 5 4 10 0 6 -5 10 -11 10 -5 0
-7 -4 -4 -10z"/>
<path d="M3050 3195 c0 -8 5 -15 10 -15 6 0 10 7 10 15 0 8 -4 15 -10 15 -5 0
-10 -7 -10 -15z"/>
<path d="M4033 3761 c-10 -15 -9 -20 2 -25 11 -4 15 2 15 19 0 30 -2 31 -17 6z"/>
</g>
</svg>
